<svg id="Layer_1" data-name="Layer 1" xmlns="http://www.w3.org/2000/svg" viewBox="0 0 1225.73 517.28"><path d="M222.65,0C99.68,0,0,99.68,0,222.65A222.45,222.45,0,0,0,119.62,420v97.26l73.91-73.92a223.49,223.49,0,0,0,29.12,1.89c122.92,0,222.66-99.63,222.66-222.6S345.57,0,222.65,0Zm16.16,142.37h50v26.31l-50,25.12Zm-82.4,40.14H206.5V210l-50.09,25.07ZM74,222.55h50.14v28.69L74,276.31ZM371.23,343H321.15V198.18l-32.31,16.21V343h-50V239.4L206.5,255.67V343H156.41V280.74l-32.25,16.15V343H74V298.89L371.23,150Zm0-215.53-50.08,25.07V102.28h50.08Z"/><path d="M505.54,98.65v-68h38.08a25.08,25.08,0,0,1,12.09,2.92,22.5,22.5,0,0,1,8.54,8,21,21,0,0,1,3.16,11.37A22.3,22.3,0,0,1,564,65.09a24,24,0,0,1-9,8.45,26.44,26.44,0,0,1-12.82,3.06H522.05V98.65Zm16.22-36.52h17.58A12.51,12.51,0,0,0,544.78,61a10,10,0,0,0,3.89-3.21,7.66,7.66,0,0,0,1.45-4.56,6.47,6.47,0,0,0-1.45-4.28,9.64,9.64,0,0,0-3.89-2.72,14.68,14.68,0,0,0-5.44-1H521.76Z"/><path d="M624.33,99.24a33.72,33.72,0,0,1-16.85-4.08A29.56,29.56,0,0,1,596.16,84a31.78,31.78,0,0,1-4.08-16.13V30.57h10.49V67.38a21.14,21.14,0,0,0,10.78,18.84,21.82,21.82,0,0,0,11,2.82,23.12,23.12,0,0,0,11.46-2.82,21,21,0,0,0,8-7.72,21.3,21.3,0,0,0,2.92-11.12V30.57h10V67.86A31.78,31.78,0,0,1,652.59,84a29.53,29.53,0,0,1-11.36,11.17A34,34,0,0,1,624.33,99.24Z"/><path d="M686.29,98.65v-68H721a39,39,0,0,1,13.35,2,16.87,16.87,0,0,1,8.12,5.78,15.62,15.62,0,0,1,2.71,9.33,13.65,13.65,0,0,1-3.4,9.32c-2.26,2.59-5.57,4.44-9.9,5.54l.48-1.94a27.71,27.71,0,0,1,8.16,3.2,17.07,17.07,0,0,1,6,5.92,16.78,16.78,0,0,1,2.24,8.84,19.59,19.59,0,0,1-2.09,9.47,16.55,16.55,0,0,1-5.78,6.17,25.72,25.72,0,0,1-8.31,3.35,43.68,43.68,0,0,1-9.47,1Zm10.49-40.21h25.45a16.36,16.36,0,0,0,6.12-1.12,10.65,10.65,0,0,0,4.47-3.15,7.35,7.35,0,0,0,1.65-4.76,7,7,0,0,0-3.79-6.61,20.13,20.13,0,0,0-9.61-2H696.78Zm0,30.11H723.2A24.58,24.58,0,0,0,731,87.43a10.86,10.86,0,0,0,5.2-3.39,8.63,8.63,0,0,0,1.84-5.59,7.55,7.55,0,0,0-2.23-5.73,13.73,13.73,0,0,0-5.78-3.16,26.43,26.43,0,0,0-7.33-1H696.78Z"/><path d="M774.39,98.65v-68h10.49V88.55h41.66v10.1Z"/><path d="M853.35,98.65V88.45h15.84V40.86H853.35V30.66h42.26v10.2H879.68V88.45h15.93v10.2Z"/><path d="M957,99.62a42.54,42.54,0,0,1-14.67-2.47A35.52,35.52,0,0,1,930.42,90a32.69,32.69,0,0,1-7.91-11.12,35.2,35.2,0,0,1-2.82-14.23,31.93,31.93,0,0,1,3-13.7,34.66,34.66,0,0,1,8.16-11,37.47,37.47,0,0,1,12-7.29,40.62,40.62,0,0,1,14.47-2.57A41.6,41.6,0,0,1,969,31.73,49.35,49.35,0,0,1,979.28,36a30.47,30.47,0,0,1,7.43,5.58L980.2,50a44.93,44.93,0,0,0-6.94-5.05,32.61,32.61,0,0,0-16.76-4.47,28.19,28.19,0,0,0-9.71,1.7,27.72,27.72,0,0,0-8.4,4.86,22.55,22.55,0,0,0-5.88,7.67,23.05,23.05,0,0,0-2.14,10,24.31,24.31,0,0,0,2.19,10.54,21.62,21.62,0,0,0,6.07,7.72,28.25,28.25,0,0,0,8.89,4.76,33.4,33.4,0,0,0,10.53,1.65A30.81,30.81,0,0,0,967.28,88a33,33,0,0,0,7.53-3.4,67.44,67.44,0,0,0,6.07-4.23l5,8.65a36.44,36.44,0,0,1-7,4.8A49.67,49.67,0,0,1,968.84,98,42,42,0,0,1,957,99.62Z"/><path d="M541.87,199.71A48.79,48.79,0,0,1,525.36,197a39.57,39.57,0,0,1-12.92-7.44A33.77,33.77,0,0,1,504,178.44a34,34,0,0,1,0-28,33.65,33.65,0,0,1,8.5-11.17,40.18,40.18,0,0,1,12.92-7.43,48,48,0,0,1,16.36-2.67,48.55,48.55,0,0,1,16.42,2.67,39.6,39.6,0,0,1,12.91,7.43,33.94,33.94,0,0,1,8.46,11.17,34,34,0,0,1,0,28,33.8,33.8,0,0,1-8.46,11.16A39.62,39.62,0,0,1,558.19,197,48.25,48.25,0,0,1,541.87,199.71Zm-.1-15.55a29.56,29.56,0,0,0,9.66-1.5,23.5,23.5,0,0,0,7.63-4.18,18.72,18.72,0,0,0,5-6.26,18.12,18.12,0,0,0,0-15.54,18.66,18.66,0,0,0-5-6.27,23.67,23.67,0,0,0-7.63-4.17,29.56,29.56,0,0,0-9.66-1.51,29.13,29.13,0,0,0-9.61,1.51,25,25,0,0,0-7.63,4.12,17.6,17.6,0,0,0-4.95,6.22,19,19,0,0,0,0,15.69,17.39,17.39,0,0,0,4.95,6.26,24.86,24.86,0,0,0,7.63,4.13A29.13,29.13,0,0,0,541.77,184.16Z"/><path d="M607.72,198.73v-68h36.42A21.51,21.51,0,0,1,662.69,141a19.81,19.81,0,0,1,2.92,10.59,20,20,0,0,1-3.16,11,23.28,23.28,0,0,1-8.3,7.87,22.91,22.91,0,0,1-11.47,2.91H618.21v25.35Zm10.49-35.45H642a12.82,12.82,0,0,0,10.83-5.87,10.59,10.59,0,0,0,1.69-5.78,9.28,9.28,0,0,0-1.69-5.44,12.35,12.35,0,0,0-4.57-3.89,13.63,13.63,0,0,0-6.26-1.45h-23.8Z"/><path d="M691.54,198.73V188.54h15.83v-47.6H691.54V130.75h42.25v10.19H717.86v47.6h15.93v10.19Z"/><path d="M764.38,198.73v-68h10.2l51.29,55.65-.78.87c-.33-1.87-.6-3.88-.83-6s-.4-4.35-.53-6.65-.24-4.66-.34-7.09-.16-4.86-.19-7.29-.05-4.8-.05-7.14V130.75h10.49v68h-10.4l-50.6-53.61.29-1.36c.2,1.94.37,3.88.53,5.83s.34,3.85.54,5.73.35,3.69.49,5.44.22,3.44.28,5.1.1,3.19.1,4.61v28.26Z"/><path d="M864.23,198.73V188.54h15.83v-47.6H864.23V130.75h42.25v10.19H890.55v47.6h15.93v10.19Z"/><path d="M969.42,199.71A43.71,43.71,0,0,1,953.88,197a38.24,38.24,0,0,1-12.34-7.44,33.47,33.47,0,0,1,0-49.72,38.24,38.24,0,0,1,12.34-7.44,46.56,46.56,0,0,1,31.08,0,38.2,38.2,0,0,1,12.33,7.44,33.89,33.89,0,0,1,8.16,11.12,33.79,33.79,0,0,1,0,27.48,33.79,33.79,0,0,1-8.16,11.12A38.2,38.2,0,0,1,985,197,43.79,43.79,0,0,1,969.42,199.71Zm0-10.2a32.51,32.51,0,0,0,11.36-1.9,27.94,27.94,0,0,0,8.94-5.24,23.78,23.78,0,0,0,5.87-7.87,23.83,23.83,0,0,0,0-19.52,23.78,23.78,0,0,0-5.87-7.87,27.94,27.94,0,0,0-8.94-5.24,34.94,34.94,0,0,0-22.73,0,28.34,28.34,0,0,0-8.93,5.19,22.57,22.57,0,0,0-5.83,7.82,24.73,24.73,0,0,0,0,19.67,22.47,22.47,0,0,0,5.83,7.87,28.34,28.34,0,0,0,8.93,5.19A32.57,32.57,0,0,0,969.42,189.51Z"/><path d="M1033.91,198.73v-68h10.2l51.28,55.65-.78.87c-.32-1.87-.6-3.88-.82-6s-.41-4.35-.54-6.65-.24-4.66-.34-7.09-.16-4.86-.19-7.29,0-4.8,0-7.14V130.75h10.49v68h-10.39l-50.61-53.61.29-1.36q.3,2.91.54,5.83t.53,5.73c.2,1.88.36,3.69.49,5.44s.22,3.44.29,5.1.1,3.19.1,4.61v28.26Z"/><path d="M495.73,298.82l31.86-68h15.15l31.67,68h-17l-18.07-38.66c-.58-1.42-1.18-2.82-1.79-4.18s-1.17-2.68-1.65-4-1-2.6-1.41-3.93-.88-2.64-1.26-3.94l3.49-.09c-.45,1.42-.91,2.81-1.36,4.17s-1,2.69-1.51,4-1.11,2.6-1.69,3.93-1.2,2.7-1.85,4.13l-18,38.56Zm14.86-12.34,5.35-12.43H554l3,12.43Z"/><path d="M594.32,298.82v-68h10.2l51.28,55.65-.78.88c-.32-1.88-.6-3.89-.82-6s-.41-4.35-.54-6.65-.24-4.66-.34-7.09-.16-4.86-.19-7.28,0-4.81,0-7.14V230.83h10.49v68h-10.4l-50.6-53.62.29-1.36c.2,1.95.37,3.89.54,5.83s.34,3.85.53,5.73.36,3.69.49,5.44.22,3.45.29,5.1.1,3.19.1,4.61v28.27Z"/><path d="M686,298.82l31.27-68h11.85l31.08,68H748.75L728,253.65l-1.55-3.54c-.58-1.33-1.17-2.7-1.75-4.13s-1.15-2.85-1.7-4.27-1-2.79-1.4-4.08l2.81-.1c-.52,1.42-1,2.87-1.6,4.32s-1.12,2.88-1.7,4.27-1.17,2.76-1.75,4.08-1.17,2.61-1.75,3.84L697,298.82ZM699.7,282.6l4.08-10.11h37.69l2.42,10.11Z"/><path d="M782.64,298.82v-68h10.49v57.89H834.8v10.1Z"/><path d="M873,298.82V267.44l1.55,6.71-34-43.32h14.08l25,33.12-2.33-.1,23.9-33H914l-31.28,41.76.78-5.92v32.15Z"/><path d="M952.61,298.82V240.93H928.72v-10.1h59v10.1H963.1v57.89Z"/><path d="M1010.79,298.82v-10.2h15.83V241h-15.83v-10.2H1053V241h-15.93v47.59H1053v10.2Z"/><path d="M1114.42,299.79a42.53,42.53,0,0,1-14.66-2.48,35.26,35.26,0,0,1-11.9-7.14,32.48,32.48,0,0,1-7.92-11.12,35.16,35.16,0,0,1-2.81-14.23,31.74,31.74,0,0,1,3-13.69,34.52,34.52,0,0,1,8.15-11,37.38,37.38,0,0,1,12-7.28,40.45,40.45,0,0,1,14.47-2.58,41.67,41.67,0,0,1,11.76,1.66,50.12,50.12,0,0,1,10.25,4.22,30.42,30.42,0,0,1,7.42,5.59l-6.5,8.44a44.76,44.76,0,0,0-7-5,32.67,32.67,0,0,0-7.82-3.31,33.35,33.35,0,0,0-8.93-1.16,28.25,28.25,0,0,0-9.72,1.7,27.6,27.6,0,0,0-8.4,4.85,22.56,22.56,0,0,0-5.87,7.68,22.9,22.9,0,0,0-2.14,9.95,24.28,24.28,0,0,0,2.19,10.54,21.51,21.51,0,0,0,6.06,7.72,28.47,28.47,0,0,0,8.89,4.76,33.46,33.46,0,0,0,10.54,1.65,30.86,30.86,0,0,0,9.23-1.31,32.38,32.38,0,0,0,7.53-3.4,70.4,70.4,0,0,0,6.07-4.22l5,8.64a36.4,36.4,0,0,1-7,4.81,49.67,49.67,0,0,1-10.1,4.13A41.89,41.89,0,0,1,1114.42,299.79Z"/><path d="M1195.81,299.79a50.78,50.78,0,0,1-12.52-1.46A37.66,37.66,0,0,1,1172.8,294a36.92,36.92,0,0,1-8.65-7.38l6.8-8.65a38.89,38.89,0,0,0,11.8,9.52,30.2,30.2,0,0,0,13.46,2.92,31.45,31.45,0,0,0,8.83-1.22,17.84,17.84,0,0,0,6.85-3.54,7.43,7.43,0,0,0,2.67-5.83,5.55,5.55,0,0,0-1.36-3.79,11.05,11.05,0,0,0-3.59-2.62,26,26,0,0,0-5-1.75q-2.77-.67-5.54-1.12c-1.85-.29-3.55-.56-5.1-.82a63.52,63.52,0,0,1-11.07-2.48,32.42,32.42,0,0,1-8.31-4,16.18,16.18,0,0,1-5.24-5.78,16.37,16.37,0,0,1-1.8-7.77,16.17,16.17,0,0,1,2.14-8.26,18.78,18.78,0,0,1,6-6.26,29.91,29.91,0,0,1,9-3.93,43.5,43.5,0,0,1,11.17-1.36,46.46,46.46,0,0,1,11.61,1.36,31.55,31.55,0,0,1,9.42,4,24.47,24.47,0,0,1,6.85,6.55l-7.09,7.58a25,25,0,0,0-12.92-8.94,28.49,28.49,0,0,0-8.16-1.16,29.57,29.57,0,0,0-8.64,1.16,15.31,15.31,0,0,0-6,3.26,6.6,6.6,0,0,0-2.23,5A7.16,7.16,0,0,0,1180,253a10.21,10.21,0,0,0,3.74,3,29,29,0,0,0,5.93,2.09,71.61,71.61,0,0,0,8,1.46c3.76.58,7.33,1.29,10.74,2.14a40,40,0,0,1,9,3.3,16.92,16.92,0,0,1,6.11,5.19,13.2,13.2,0,0,1,2.24,7.82,18.62,18.62,0,0,1-3.69,11.51,23.49,23.49,0,0,1-10.39,7.58A42.71,42.71,0,0,1,1195.81,299.79Z"/><path d="M505.54,398.9v-68h16.51v53.42h40.12V398.9Z"/><path d="M578.29,398.9l31.28-68h11.85l31.08,68H641l-20.79-45.17-1.55-3.54c-.58-1.33-1.17-2.7-1.75-4.13s-1.15-2.85-1.7-4.27-1-2.79-1.41-4.08l2.82-.1c-.52,1.43-1.06,2.87-1.61,4.32s-1.11,2.88-1.7,4.28-1.16,2.75-1.74,4.08-1.17,2.6-1.75,3.83L589.27,398.9ZM592,382.68l4.08-10.1h37.68l2.43,10.1Z"/><path d="M674.93,398.9v-68H709.6a39.07,39.07,0,0,1,13.36,2,16.77,16.77,0,0,1,8.11,5.78,15.57,15.57,0,0,1,2.72,9.32,13.72,13.72,0,0,1-3.4,9.33q-3.4,3.89-9.91,5.54l.49-1.95a28,28,0,0,1,8.16,3.21,17.07,17.07,0,0,1,6,5.92,16.85,16.85,0,0,1,2.23,8.84,19.62,19.62,0,0,1-2.09,9.47,16.46,16.46,0,0,1-5.78,6.17,25.89,25.89,0,0,1-8.3,3.35,43.75,43.75,0,0,1-9.47,1Zm10.49-40.21h25.45a16.36,16.36,0,0,0,6.12-1.12,10.64,10.64,0,0,0,4.46-3.16,7.32,7.32,0,0,0,1.65-4.75,7,7,0,0,0-3.78-6.61,20.17,20.17,0,0,0-9.62-2H685.42Zm0,30.11h26.42a24.67,24.67,0,0,0,7.82-1.12,10.89,10.89,0,0,0,5.19-3.4,8.59,8.59,0,0,0,1.85-5.58,7.55,7.55,0,0,0-2.24-5.73,13.59,13.59,0,0,0-5.77-3.16,26.5,26.5,0,0,0-7.34-1H685.42Z"/></svg>